<svg xmlns="http://www.w3.org/2000/svg" viewBox="0 0 80 124" width="40" height="62"><path fill="#000" d="M66.9 112.1c-4.2 0-8-1-11-3.1-3.1-2.2-5.5-5.3-7-9.4L37 65.8l-7.6-19-2.7-6.6c-1-2.6-2-4.5-3.2-5.7-1-1.2-2.5-2-4.1-2-1.7-.2-3.9.2-6.6 1l-4.3-15A29.5 29.5 0 0 1 33.7 21c4.2 3 7.3 7.1 9.4 12.6l21.4 56.1c1 2.7 1.9 4.6 2.7 5.7.8 1.1 2 1.7 3.7 1.7a12.6 12.6 0 0 0 2-.2l1.7 14.2a25 25 0 0 1-7.7 1ZM3.2 111l27.7-73.4L43 69.5h-5.6L23 111H3Z"/><path stroke="#fff" d="m14 106.3 1.8-5.3M30 63.3l1.8-5.3M50.8 78.3l-2-5.3M34 34.5l-1.5-3L31 29l-2-2.5-1.5-1-2-1L23 24h-4l-3 .5-3 .5-2.5 1M39 46.3 37 41M43 57.3 41 52M47 68.3 45 63M22 84.3l1.8-5.3M26 73.3l1.8-5.3M18 95.3l1.8-5.3"/><path stroke="#fff" stroke-opacity=".5" stroke-width=".3" d="m29.1 47 8 20"/><path stroke="#fff" d="m52.5 81.8 8 19.7 1 1.5 1.5 1 1.5.5 2 .5h3l4-.5"/><path stroke="#fff" d="m52.5 81.8 8 19.7 1 1.5 1.5 1 1.5.5 2 .5h3l4-.5"/></svg>
